<svg xmlns="http://www.w3.org/2000/svg" viewBox="0 0 128 128"><g fill="#E10098"><path d="M18.39 96.852l-4.6-2.657L65.04 5.434l4.597 2.656zm0 0"/><path d="M12.734 87.105H115.23v5.31H12.734zm0 0"/><path d="M66.031 119.688L14.766 90.09l2.656-4.602 51.266 29.602zm0 0"/><path d="M110.566 42.601l2.656 4.598-51.266 29.602-2.656-4.598zm0 0"/><path d="M109.621 90.09L58.356 119.688l-2.656-4.602 51.265-29.598zm0 0"/><path d="M14.766 42.598L66.031 13l2.656 4.598-51.265 29.602zm0 0"/><path d="M64 66.234c-3.988 0-7.234-3.242-7.234-7.234s3.246-7.234 7.234-7.234 7.234 3.242 7.234 7.234-3.246 7.234-7.234 7.234zm0 0"/><path d="M115.266 92.41c-3.992 0-7.234-3.242-7.234-7.234s3.242-7.234 7.234-7.234c3.988 0 7.234 3.242 7.234 7.234s-3.246 7.234-7.234 7.234zm0 0"/><path d="M12.734 92.41c-3.992 0-7.234-3.242-7.234-7.234s3.242-7.234 7.234-7.234c3.988 0 7.234 3.242 7.234 7.234s-3.246 7.234-7.234 7.234zm0 0"/><path d="M64 125.875c-3.988 0-7.234-3.246-7.234-7.234 0-3.992 3.246-7.234 7.234-7.234s7.234 3.242 7.234 7.234c0 3.988-3.246 7.234-7.234 7.234zm0 0"/><path d="M115.266 50.578c-3.992 0-7.234-3.246-7.234-7.234 0-3.992 3.242-7.234 7.234-7.234 3.988 0 7.234 3.242 7.234 7.234 0 3.988-3.246 7.234-7.234 7.234zm0 0"/><path d="M12.734 50.578c-3.992 0-7.234-3.246-7.234-7.234 0-3.992 3.242-7.234 7.234-7.234 3.988 0 7.234 3.242 7.234 7.234 0 3.988-3.246 7.234-7.234 7.234zm0 0"/><path d="M64 16.719c-3.988 0-7.234-3.246-7.234-7.234S60.012 2.25 64 2.25s7.234 3.246 7.234 7.234-3.246 7.234-7.234 7.234zm0 0"/></g></svg>
