<svg xmlns="http://www.w3.org/2000/svg" viewBox="0 0 128 128"><path fill="#00618A" d="M116.948 97.807c-6.863-.187-12.104.452-16.585 2.341-1.273.537-3.305.552-3.513 2.147.7.733.809 1.829 1.365 2.731 1.07 1.73 2.876 4.052 4.488 5.268 1.762 1.33 3.577 2.751 5.465 3.902 3.358 2.047 7.107 3.217 10.34 5.268 1.906 1.21 3.799 2.733 5.658 4.097.92.675 1.537 1.724 2.732 2.147v-.194c-.628-.8-.79-1.898-1.366-2.733l-2.537-2.537c-2.48-3.292-5.629-6.184-8.976-8.585-2.669-1.916-8.642-4.504-9.755-7.609l-.195-.195c1.892-.214 4.107-.898 5.854-1.367 2.934-.786 5.556-.583 8.585-1.365l4.097-1.171v-.78c-1.531-1.571-2.623-3.651-4.292-5.073-4.37-3.72-9.138-7.437-14.048-10.537-2.724-1.718-6.089-2.835-8.976-4.292-.971-.491-2.677-.746-3.318-1.562-1.517-1.932-2.342-4.382-3.511-6.633-2.449-4.717-4.854-9.868-7.024-14.831-1.48-3.384-2.447-6.72-4.293-9.756-8.86-14.567-18.396-23.358-33.169-32-3.144-1.838-6.929-2.563-10.929-3.513-2.145-.129-4.292-.26-6.438-.391-1.311-.546-2.673-2.149-3.902-2.927C17.811 1.69 8.142-1.32 3.656 3.459c-2.842 3.026 4.087 6.003 6.438 7.609 1.728 1.183 3.947 2.81 5.268 4.292 1.015 1.146 1.169 2.896 1.952 4.39 1.076 2.06 2.011 4.336 3.122 6.242 1.108 1.903 2.308 3.875 3.707 5.66.837 1.065 2.282 1.638 2.537 3.513-1.43 2.02-1.507 5.072-2.342 7.609-3.613 11.325-2.224 25.173 2.89 33.438 1.561 2.525 5.238 7.965 10.143 5.853 4.348-1.869 3.382-7.255 4.682-12.073.298-1.091.16-1.787.976-2.537v.195l5.854 11.683c4.334 6.993 12.021 14.307 18.536 19.221 3.386 2.555 6.064 6.975 10.339 8.585v-.39h-.196c-.85-1.31-2.15-1.862-3.317-2.732a65.46 65.46 0 01-3.707-4.097c-3.275-4.414-6.187-9.258-8.78-14.048-1.284-2.372-2.394-4.976-3.512-7.317-.342-.716-.342-1.788-1.171-2.147-.838 1.278-2.065 2.371-2.732 3.902-1.054 2.416-1.195 5.38-1.561 8.39-.23.022-.153.022-.196.195-1.805-.43-2.419-2.311-3.121-3.902-1.701-3.892-1.998-10.11-.976-14.635.257-1.141 1.385-4.742 1.171-5.855-.403-1.046-1.76-1.64-2.537-2.44-.948-.974-1.975-2.341-2.732-3.513-1.837-2.829-2.733-5.993-4.683-8.78-1.005-1.425-2.743-2.931-4.097-4.293-1.518-1.528-3.204-2.634-4.39-4.487-.361-.565-1.073-1.739-.391-2.537.137-.517.438-.71 1.171-.781 1.075-.527 4.1.244 5.268.585 3.03.876 5.6 1.711 8.196 2.927 1.16.544 2.336 1.589 3.707 1.757h1.561c2.502.366 5.303-.077 7.609-.976 4.129-1.606 7.822-4.083 11.122-6.829 10.176-8.443 18.513-20.435 24.195-34.732 1.634-4.106 2.337-7.929 3.902-12.073 1.17-3.082 3.21-6.166 4.683-9.172 1.467-2.995 2.912-6.03 4.097-9.171.823-2.185 1.562-5.468 2.732-6.634.781-1.903 3.318-1.903 4.488-3.122 2.19-1.713 8.04-2.536 10.928-3.318 5.915-1.586 10.626-3.066 16.39-4.878 2.9-.916 5.805-2.653 8.78-3.902z"/></svg>
