<svg xmlns="http://www.w3.org/2000/svg" viewBox="0 0 128 128"><path fill="#2D3748" d="M63.8.1C28.6.1 0 28.7 0 63.9c0 35.2 28.6 63.8 63.8 63.8 35.2 0 63.8-28.6 63.8-63.8C127.6 28.7 99 .1 63.8.1zm0 121.3c-31.6 0-57.4-25.8-57.4-57.5C6.4 32.3 32.2 6.5 63.8 6.5c31.6 0 57.4 25.8 57.4 57.4 0 31.7-25.8 57.5-57.4 57.5z"/><path fill="#2D3748" d="M73.3 55.7c0-1.2-.4-2.3-1.2-3.2-.8-.9-2-1.3-3.3-1.3-1.3 0-2.5.4-3.3 1.3-.8.9-1.2 2-1.2 3.2 0 1.2.4 2.3 1.2 3.2.8.9 2 1.3 3.3 1.3 1.3 0 2.5-.4 3.3-1.3.8-.9 1.2-2 1.2-3.2zm-3.4 44.9c-1.4 0-2.5-.5-3.3-1.4-.8-.9-1.2-2.1-1.2-3.4V68.7c0-1.3.4-2.5 1.2-3.4.8-.9 1.9-1.4 3.3-1.4 1.4 0 2.5.5 3.3 1.4.8.9 1.2 2.1 1.2 3.4v27.1c0 1.3-.4 2.5-1.2 3.4-.8.9-1.9 1.4-3.3 1.4zm-30.6-1.3c-1.3 0-2.4-.5-3.2-1.4-.8-.9-1.3-2.1-1.3-3.4 0-1.3.4-2.5 1.3-3.4.8-.9 1.9-1.4 3.2-1.4h.8c1.3 0 2.4.5 3.2 1.4.8.9 1.3 2.1 1.3 3.4 0 1.3-.4 2.5-1.3 3.4-.8.9-1.9 1.4-3.2 1.4h-.8zm0-27.1c-1.3 0-2.4-.5-3.2-1.4-.8-.9-1.3-2.1-1.3-3.4 0-1.3.4-2.5 1.3-3.4.8-.9 1.9-1.4 3.2-1.4h.8c1.3 0 2.4.5 3.2 1.4.8.9 1.3 2.1 1.3 3.4 0 1.3-.4 2.5-1.3 3.4-.8.9-1.9 1.4-3.2 1.4h-.8zm0-27.1c-1.3 0-2.4-.5-3.2-1.4-.8-.9-1.3-2.1-1.3-3.4 0-1.3.4-2.5 1.3-3.4.8-.9 1.9-1.4 3.2-1.4h.8c1.3 0 2.4.5 3.2 1.4.8.9 1.3 2.1 1.3 3.4 0 1.3-.4 2.5-1.3 3.4-.8.9-1.9 1.4-3.2 1.4h-.8zm61.2 54.2c-1.3 0-2.4-.5-3.2-1.4-.8-.9-1.3-2.1-1.3-3.4 0-1.3.4-2.5 1.3-3.4.8-.9 1.9-1.4 3.2-1.4h.8c1.3 0 2.4.5 3.2 1.4.8.9 1.3 2.1 1.3 3.4 0 1.3-.4 2.5-1.3 3.4-.8.9-1.9 1.4-3.2 1.4h-.8zm0-27.1c-1.3 0-2.4-.5-3.2-1.4-.8-.9-1.3-2.1-1.3-3.4 0-1.3.4-2.5 1.3-3.4.8-.9 1.9-1.4 3.2-1.4h.8c1.3 0 2.4.5 3.2 1.4.8.9 1.3 2.1 1.3 3.4 0 1.3-.4 2.5-1.3 3.4-.8.9-1.9 1.4-3.2 1.4h-.8zm0-27.1c-1.3 0-2.4-.5-3.2-1.4-.8-.9-1.3-2.1-1.3-3.4 0-1.3.4-2.5 1.3-3.4.8-.9 1.9-1.4 3.2-1.4h.8c1.3 0 2.4.5 3.2 1.4.8.9 1.3 2.1 1.3 3.4 0 1.3-.4 2.5-1.3 3.4-.8.9-1.9 1.4-3.2 1.4h-.8z"/></svg>
