<svg xmlns="http://www.w3.org/2000/svg" width="512" height="512" viewBox="0 0 512 512"><path fill="#FF4154" d="M307.867 450.453h-1.138c-16.07-1.138-28.521-14.932-28.521-31.002c0-17.208 13.794-31.002 31.002-31.002c17.208 0 31.002 13.794 31.002 31.002c0 16.07-12.656 29.659-28.726 31.002h-3.619zm-3.619-77.505c-25.812 0-46.549 20.737-46.549 46.549c0 25.812 20.737 46.549 46.549 46.549c25.812 0 46.549-20.737 46.549-46.549c0-25.812-20.737-46.549-46.549-46.549z"/><path fill="#FF4154" d="M215.342 450.453h-1.138c-16.07-1.138-28.521-14.932-28.521-31.002c0-17.208 13.794-31.002 31.002-31.002c17.208 0 31.002 13.794 31.002 31.002c0 16.07-12.656 29.659-28.726 31.002h-3.619zm-3.619-77.505c-25.812 0-46.549 20.737-46.549 46.549c0 25.812 20.737 46.549 46.549 46.549c25.812 0 46.549-20.737 46.549-46.549c0-25.812-20.737-46.549-46.549-46.549z"/><path fill="#FF4154" d="M123.953 450.453h-1.138c-16.07-1.138-28.521-14.932-28.521-31.002c0-17.208 13.794-31.002 31.002-31.002c17.208 0 31.002 13.794 31.002 31.002c0 16.07-12.656 29.659-28.726 31.002h-3.619zm-3.619-77.505c-25.812 0-46.549 20.737-46.549 46.549c0 25.812 20.737 46.549 46.549 46.549c25.812 0 46.549-20.737 46.549-46.549c0-25.812-20.737-46.549-46.549-46.549z"/><path fill="#FF4154" d="M123.953 358.029h-1.138c-16.07-1.138-28.521-14.932-28.521-31.002c0-17.208 13.794-31.002 31.002-31.002c17.208 0 31.002 13.794 31.002 31.002c0 16.07-12.656 29.659-28.726 31.002h-3.619zm-3.619-77.505c-25.812 0-46.549 20.737-46.549 46.549c0 25.812 20.737 46.549 46.549 46.549c25.812 0 46.549-20.737 46.549-46.549c0-25.812-20.737-46.549-46.549-46.549z"/><path fill="#FF4154" d="M123.953 265.605h-1.138c-16.07-1.138-28.521-14.932-28.521-31.002c0-17.208 13.794-31.002 31.002-31.002c17.208 0 31.002 13.794 31.002 31.002c0 16.07-12.656 29.659-28.726 31.002h-3.619zm-3.619-77.505c-25.812 0-46.549 20.737-46.549 46.549c0 25.812 20.737 46.549 46.549 46.549c25.812 0 46.549-20.737 46.549-46.549c0-25.812-20.737-46.549-46.549-46.549z"/><path fill="#FF4154" d="M123.953 173.181h-1.138c-16.07-1.138-28.521-14.932-28.521-31.002c0-17.208 13.794-31.002 31.002-31.002c17.208 0 31.002 13.794 31.002 31.002c0 16.07-12.656 29.659-28.726 31.002h-3.619zm-3.619-77.505c-25.812 0-46.549 20.737-46.549 46.549c0 25.812 20.737 46.549 46.549 46.549c25.812 0 46.549-20.737 46.549-46.549c0-25.812-20.737-46.549-46.549-46.549z"/><path fill="#FF4154" d="M215.342 173.181h-1.138c-16.07-1.138-28.521-14.932-28.521-31.002c0-17.208 13.794-31.002 31.002-31.002c17.208 0 31.002 13.794 31.002 31.002c0 16.07-12.656 29.659-28.726 31.002h-3.619zm-3.619-77.505c-25.812 0-46.549 20.737-46.549 46.549c0 25.812 20.737 46.549 46.549 46.549c25.812 0 46.549-20.737 46.549-46.549c0-25.812-20.737-46.549-46.549-46.549z"/><path fill="#FF4154" d="M307.867 173.181h-1.138c-16.07-1.138-28.521-14.932-28.521-31.002c0-17.208 13.794-31.002 31.002-31.002c17.208 0 31.002 13.794 31.002 31.002c0 16.07-12.656 29.659-28.726 31.002h-3.619zm-3.619-77.505c-25.812 0-46.549 20.737-46.549 46.549c0 25.812 20.737 46.549 46.549 46.549c25.812 0 46.549-20.737 46.549-46.549c0-25.812-20.737-46.549-46.549-46.549z"/><path fill="#FF4154" d="M399.281 173.181h-1.138c-16.07-1.138-28.521-14.932-28.521-31.002c0-17.208 13.794-31.002 31.002-31.002c17.208 0 31.002 13.794 31.002 31.002c0 16.07-12.656 29.659-28.726 31.002h-3.619zm-3.619-77.505c-25.812 0-46.549 20.737-46.549 46.549c0 25.812 20.737 46.549 46.549 46.549c25.812 0 46.549-20.737 46.549-46.549c0-25.812-20.737-46.549-46.549-46.549z"/><path fill="#FF4154" d="M399.281 265.605h-1.138c-16.07-1.138-28.521-14.932-28.521-31.002c0-17.208 13.794-31.002 31.002-31.002c17.208 0 31.002 13.794 31.002 31.002c0 16.07-12.656 29.659-28.726 31.002h-3.619zm-3.619-77.505c-25.812 0-46.549 20.737-46.549 46.549c0 25.812 20.737 46.549 46.549 46.549c25.812 0 46.549-20.737 46.549-46.549c0-25.812-20.737-46.549-46.549-46.549z"/><path fill="#FF4154" d="M399.281 358.029h-1.138c-16.07-1.138-28.521-14.932-28.521-31.002c0-17.208 13.794-31.002 31.002-31.002c17.208 0 31.002 13.794 31.002 31.002c0 16.07-12.656 29.659-28.726 31.002h-3.619zm-3.619-77.505c-25.812 0-46.549 20.737-46.549 46.549c0 25.812 20.737 46.549 46.549 46.549c25.812 0 46.549-20.737 46.549-46.549c0-25.812-20.737-46.549-46.549-46.549z"/></svg>
