<svg xmlns="http://www.w3.org/2000/svg" viewBox="0 0 128 128"><path fill="#A41E11" d="M121.8 93.1c-6.7 3.5-41.4 17.7-48.8 21.6-7.4 3.9-11.5 3.8-17.3 1-5.8-2.7-42.3-17.6-49-21.2-3.4-1.8-5.2-3.3-5.2-4.8V78.5c0-1.4 1.9-2.9 4.9-4.5 3-1.7 42.7-18.5 48.7-21.1 6-2.6 8.2-2.6 16.9 0 8.7 2.6 42.6 17.2 49 21.1 6.4 3.9 6.5 4.7 6.5 6.1v11.2c0 1.5-1.8 3-4.7 4.8z"/><path fill="#D82C20" d="M121.8 82.1c-6.7 3.5-41.4 17.7-48.8 21.6-7.4 3.9-11.5 3.8-17.3 1-5.8-2.7-42.3-17.6-49-21.2-3.4-1.8-5.2-3.3-5.2-4.8v11.2c0 1.5 1.8 3 5.2 4.8 6.7 3.6 43.2 18.5 49 21.2 5.8 2.8 9.9 2.9 17.3-1 7.4-3.9 42.1-18.1 48.8-21.6 2.9-1.8 4.7-3.3 4.7-4.8V77.3c0 1.5-1.8 3-4.7 4.8z"/><path fill="#A41E11" d="M121.8 71.5c-6.7 3.5-41.4 17.7-48.8 21.6-7.4 3.9-11.5 3.8-17.3 1-5.8-2.7-42.3-17.6-49-21.2-3.4-1.8-5.2-3.3-5.2-4.8v11.2c0 1.5 1.8 3 5.2 4.8 6.7 3.6 43.2 18.5 49 21.2 5.8 2.8 9.9 2.9 17.3-1 7.4-3.9 42.1-18.1 48.8-21.6 2.9-1.8 4.7-3.3 4.7-4.8V66.7c0 1.5-1.8 3-4.7 4.8z"/><path fill="#D82C20" d="M121.8 60.9c-6.7 3.5-41.4 17.7-48.8 21.6-7.4 3.9-11.5 3.8-17.3 1-5.8-2.7-42.3-17.6-49-21.2-3.4-1.8-5.2-3.3-5.2-4.8v11.2c0 1.5 1.8 3 5.2 4.8 6.7 3.6 43.2 18.5 49 21.2 5.8 2.8 9.9 2.9 17.3-1 7.4-3.9 42.1-18.1 48.8-21.6 2.9-1.8 4.7-3.3 4.7-4.8V56.1c0 1.5-1.8 3-4.7 4.8z"/><path fill="#A41E11" d="M121.8 50.3c-6.7 3.5-41.4 17.7-48.8 21.6-7.4 3.9-11.5 3.8-17.3 1-5.8-2.7-42.3-17.6-49-21.2-3.4-1.8-5.2-3.3-5.2-4.8v11.2c0 1.5 1.8 3 5.2 4.8 6.7 3.6 43.2 18.5 49 21.2 5.8 2.8 9.9 2.9 17.3-1 7.4-3.9 42.1-18.1 48.8-21.6 2.9-1.8 4.7-3.3 4.7-4.8V45.5c0 1.5-1.8 3-4.7 4.8z"/><path fill="#D82C20" d="M121.8 39.7c-6.7 3.5-41.4 17.7-48.8 21.6-7.4 3.9-11.5 3.8-17.3 1-5.8-2.7-42.3-17.6-49-21.2-3.4-1.8-5.2-3.3-5.2-4.8v11.2c0 1.5 1.8 3 5.2 4.8 6.7 3.6 43.2 18.5 49 21.2 5.8 2.8 9.9 2.9 17.3-1 7.4-3.9 42.1-18.1 48.8-21.6 2.9-1.8 4.7-3.3 4.7-4.8V34.9c0 1.5-1.8 3-4.7 4.8z"/><path fill="#fff" d="M80.4 26.1L64.2 30.4 51.5 25.2 67.3 21.2z"/><path fill="#fff" d="M80.4 26.1L64.2 30.4 51.5 25.2 67.3 21.2z"/><path fill="#C6302B" d="M35.4 30L45.1 35.1 35.4 40.2z"/><path fill="#C6302B" d="M35.4 30L45.1 35.1 35.4 40.2z"/><path fill="#fff" d="M65.2 68.3L46.7 59.9 65.2 51.8 83.8 59.9z"/><path fill="#fff" d="M65.2 68.3L46.7 59.9 65.2 51.8 83.8 59.9z"/><path fill="#C6302B" d="M65.2 68.3L46.7 59.9 65.2 51.8 83.8 59.9z"/><ellipse fill="#fff" cx="38.4" cy="35.1" rx="3.2" ry="2.3"/><path fill="#7A0C00" d="M93.3 27.7L83.5 34.1 93.3 40.5 103.2 34.1z"/><path fill="#AD2115" d="M83.5 34.1L93.3 40.5 93.3 27.7z"/><path fill="#AD2115" d="M93.3 40.5L103.2 34.1 93.3 27.7z"/><path fill="#7A0C00" d="M93.3 27.7L83.5 34.1 93.3 40.5 103.2 34.1z"/><path fill="#D82C20" d="M93.3 25.7L83.5 32.1 93.3 38.5 103.2 32.1z"/><path fill="#A41E11" d="M93.3 38.5L103.2 32.1 93.3 25.7z"/><path fill="#A41E11" d="M83.5 32.1L93.3 38.5 93.3 25.7z"/><path fill="#A41E11" d="M88.4 34.9L83.5 32.1 93.3 25.7 98.2 28.5z"/><path fill="#7A0C00" d="M98.2 28.5L93.3 25.7 93.3 38.5 98.2 35.7z"/><path fill="#7A0C00" d="M88.4 34.9L93.3 38.5 93.3 25.7 88.4 29.3z"/><path fill="#AD2115" d="M98.2 35.7L93.3 38.5 88.4 34.9 93.3 32.1z"/><path fill="#AD2115" d="M98.2 28.5L93.3 32.1 88.4 29.3 93.3 25.7z"/><path fill="#fff" d="M71.3 50.7L80.4 46.9 80.4 39.3 71.3 43.1z"/><path fill="#C6302B" d="M71.3 50.7L62.2 46.9 62.2 39.3 71.3 43.1z"/><path fill="#fff" d="M80.4 46.9L71.3 43.1 62.2 46.9 71.3 50.7z"/><path fill="#C6302B" d="M71.3 43.1L80.4 39.3 80.4 31.7 71.3 35.5z"/><path fill="#fff" d="M71.3 43.1L62.2 39.3 62.2 31.7 71.3 35.5z"/><path fill="#C6302B" d="M80.4 39.3L71.3 35.5 62.2 39.3 71.3 43.1z"/><path fill="#FFCC2F" d="M66.7 36.3L67.8 36.8 67.8 37.8 66.7 37.3 65.6 37.8 65.6 36.8z"/><path fill="#FFCC2F" d="M66.7 36.3L67.8 36.8 67.8 37.8 66.7 37.3 65.6 37.8 65.6 36.8z"/><path fill="#FFCC2F" d="M66.7 44L67.8 44.5 67.8 45.5 66.7 45 65.6 45.5 65.6 44.5z"/><path fill="#FFCC2F" d="M66.7 44L67.8 44.5 67.8 45.5 66.7 45 65.6 45.5 65.6 44.5z"/><path fill="#FFCC2F" d="M74.8 40.1L75.9 40.6 75.9 41.6 74.8 41.1 73.7 41.6 73.7 40.6z"/><path fill="#FFCC2F" d="M74.8 40.1L75.9 40.6 75.9 41.6 74.8 41.1 73.7 41.6 73.7 40.6z"/><path fill="#FFCC2F" d="M58.6 40.1L59.7 40.6 59.7 41.6 58.6 41.1 57.5 41.6 57.5 40.6z"/><path fill="#FFCC2F" d="M58.6 40.1L59.7 40.6 59.7 41.6 58.6 41.1 57.5 41.6 57.5 40.6z"/><path fill="#FFCC2F" d="M62.7 33.2L63.8 33.7 63.8 34.7 62.7 34.2 61.6 34.7 61.6 33.7z"/><path fill="#FFCC2F" d="M62.7 33.2L63.8 33.7 63.8 34.7 62.7 34.2 61.6 34.7 61.6 33.7z"/><path fill="#FFCC2F" d="M70.8 33.2L71.9 33.7 71.9 34.7 70.8 34.2 69.7 34.7 69.7 33.7z"/><path fill="#FFCC2F" d="M70.8 33.2L71.9 33.7 71.9 34.7 70.8 34.2 69.7 34.7 69.7 33.7z"/><path fill="#FFCC2F" d="M70.8 47L71.9 47.5 71.9 48.5 70.8 48 69.7 48.5 69.7 47.5z"/><path fill="#FFCC2F" d="M70.8 47L71.9 47.5 71.9 48.5 70.8 48 69.7 48.5 69.7 47.5z"/><path fill="#FFCC2F" d="M62.7 47L63.8 47.5 63.8 48.5 62.7 48 61.6 48.5 61.6 47.5z"/><path fill="#FFCC2F" d="M62.7 47L63.8 47.5 63.8 48.5 62.7 48 61.6 48.5 61.6 47.5z"/></svg>
